<svg xmlns="http://www.w3.org/2000/svg" viewBox="0 0 100 100">
  <metadata>Eye icon supplied by user from C:\Users\Rchie\Downloads\noun-eye-8332336.svg. Created by Suwarjo from Noun Project.</metadata>
  <path fill="#188038" fill-rule="evenodd" d="m8.5078 56.027c13.031-13.758 26.496-20.637 40.402-20.637 13.867 0 28.043 6.8594 42.527 20.578 0.67188 0.63672 0.69531 1.6953 0.058594 2.3672-0.023438 0.023437-0.042969 0.042968-0.066406 0.066406-14.48 13.715-28.656 20.574-42.523 20.574-13.906 0-27.371-6.8789-40.402-20.637-0.61719-0.65234-0.60938-1.668 0.003906-2.3125zm32.801-25.887c0.57812 0.71875 0.46484 1.7734-0.25391 2.3555-0.71875 0.57812-1.7734 0.46484-2.3555-0.25391l-3.1523-3.9258c-0.57812-0.71875-0.46484-1.7734 0.25391-2.3555 0.71875-0.57813 1.7734-0.46484 2.3555 0.25391zm19.992 2.0977c-0.57812 0.72266-1.6328 0.83594-2.3555 0.25391-0.71875-0.57813-0.83594-1.6328-0.25391-2.3555l3.1523-3.9258c0.57812-0.71875 1.6328-0.83594 2.3555-0.25391 0.72266 0.57812 0.83594 1.6328 0.25391 2.3555zm-9.6211-2.9766c0 0.92578-0.75 1.6797-1.6797 1.6797-0.92578 0-1.6797-0.75-1.6797-1.6797v-6.5586c0-0.92578 0.75-1.6797 1.6797-1.6797 0.92578 0 1.6797 0.75 1.6797 1.6797zm-11.109 26.254c-0.09375 0.54297-0.14453 1.0977-0.14453 1.668 0 5.2891 4.2852 9.5742 9.5742 9.5742s9.5742-4.2852 9.5742-9.5742c0-5.2891-4.2852-9.5742-9.5742-9.5742 0.019531 0.21094 0.027344 0.42578 0.027344 0.64062 0 4.1523-3.3672 7.5156-7.5156 7.5156-0.67188 0-1.3203-0.085937-1.9414-0.25zm25.219-13.18c3.6484 3.8789 5.8828 9.1016 5.8828 14.844 0 5.7461-2.2344 10.969-5.8828 14.844 7.2227-3.0312 14.57-7.9766 22.039-14.844-7.4688-6.8633-14.816-11.812-22.039-14.844zm-30.367 30.883c-0.25391-0.23047-0.50391-0.46875-0.74609-0.71484-3.9219-3.9219-6.3477-9.3398-6.3477-15.324 0-5.9844 2.4258-11.402 6.3477-15.324 0.24219-0.24219 0.49219-0.48047 0.74609-0.71484-7.9023 2.8398-15.699 8.1836-23.379 16.043 7.6797 7.8555 15.477 13.203 23.379 16.035zm27.527-28.988c-3.3164-3.3125-7.8945-5.3633-12.949-5.3633-5.0586 0-9.6367 2.0508-12.949 5.3633-3.3125 3.3164-5.3633 7.8945-5.3633 12.949 0 5.0586 2.0508 9.6367 5.3633 12.949s7.8945 5.3633 12.949 5.3633c5.0586 0 9.6367-2.0508 12.949-5.3633s5.3633-7.8945 5.3633-12.949c0.003906-5.0547-2.0469-9.6328-5.3633-12.949z"/>
</svg>
